<svg width="100" height="100" viewBox="0 0 100 100" fill="none" xmlns="http://www.w3.org/2000/svg">
<g clip-path="url(#clip0_72_43)">
<path d="M50.0014 0.693359C22.8127 0.693359 0.695312 22.8117 0.695312 49.9995C0.695312 77.1872 22.8137 99.3056 50.0014 99.3056C77.1892 99.3056 99.3076 77.1872 99.3076 49.9995C99.3076 22.8117 77.1892 0.693359 50.0014 0.693359ZM50.0014 92.3862C26.628 92.3862 7.6147 73.373 7.6147 49.9995C7.6147 26.626 26.628 7.61275 50.0014 7.61275C73.3749 7.61275 92.3882 26.626 92.3882 49.9995C92.3882 73.373 73.3749 92.3862 50.0014 92.3862Z" fill="black"/>
<path d="M31.1133 84.6774L57.999 54.356L68.8847 15.3213L41.999 45.6427L31.1133 84.6774ZM61.5225 28.8376L55.404 50.7723L46.332 45.9653L61.5225 28.8376Z" fill="black"/>
</g>
<defs>
<clipPath id="clip0_72_43">
<rect width="100" height="100" fill="white"/>
</clipPath>
</defs>
</svg>
