<svg width="100" height="85" viewBox="0 0 100 85" fill="none" xmlns="http://www.w3.org/2000/svg">
<g clip-path="url(#clip0_72_33)">
<path d="M13.9007 28.5877C13.007 28.5343 12.1674 28.1417 11.5535 27.49C10.9395 26.8383 10.5977 25.9768 10.5977 25.0814C10.5977 24.1861 10.9395 23.3246 11.5535 22.6729C12.1674 22.0212 13.007 21.6286 13.9007 21.5752H95.6383C96.532 21.6286 97.3716 22.0212 97.9855 22.6729C98.5994 23.3246 98.9413 24.1861 98.9413 25.0814C98.9413 25.9768 98.5994 26.8383 97.9855 27.49C97.3716 28.1417 96.532 28.5343 95.6383 28.5877H13.9007Z" fill="black"/>
<path fill-rule="evenodd" clip-rule="evenodd" d="M18.3761 18.0752C17.4426 18.0646 16.5483 17.698 15.8761 17.0502C15.2196 16.3837 14.8516 15.4857 14.8516 14.5502C14.8516 13.6146 15.2196 12.7167 15.8761 12.0502L16.4011 11.6127C16.6034 11.4809 16.8218 11.3759 17.0511 11.3002C17.2486 11.1905 17.4647 11.1184 17.6886 11.0877C18.1485 10.9753 18.6287 10.9753 19.0886 11.0877C19.3124 11.1184 19.5286 11.1905 19.7261 11.3002C19.9422 11.3791 20.1478 11.4841 20.3386 11.6127L20.8761 12.0502C21.1934 12.3804 21.4476 12.7659 21.6261 13.1877C21.7965 13.6171 21.8814 14.0757 21.8761 14.5377C21.8769 14.9911 21.7921 15.4407 21.6261 15.8627C21.4539 16.2878 21.1989 16.6744 20.8761 17.0002C20.2067 17.6524 19.3106 18.0197 18.3761 18.0252V18.0752Z" fill="black"/>
<path fill-rule="evenodd" clip-rule="evenodd" d="M28.9143 18.0751C27.9825 18.0559 27.0913 17.6905 26.4143 17.0501C25.7633 16.3819 25.4037 15.4829 25.4143 14.5501C25.4218 14.0857 25.5195 13.6272 25.7018 13.2001C25.8576 12.7755 26.1002 12.388 26.4143 12.0626C26.76 11.7469 27.1575 11.4932 27.5893 11.3126C28.2305 11.0508 28.9343 10.9824 29.6139 11.1157C30.2936 11.2489 30.9194 11.5781 31.4143 12.0626C31.7284 12.388 31.971 12.7755 32.1268 13.2001C32.3328 13.6194 32.4316 14.0832 32.4143 14.5501C32.4176 15.01 32.3293 15.4661 32.1544 15.8915C31.9796 16.317 31.7217 16.7033 31.3959 17.028C31.07 17.3527 30.6827 17.6092 30.2567 17.7825C29.8306 17.9559 29.3743 18.0426 28.9143 18.0376V18.0751Z" fill="black"/>
<path fill-rule="evenodd" clip-rule="evenodd" d="M39.462 18.0752C38.9942 18.0732 38.5314 17.9798 38.0995 17.8002C37.6804 17.6098 37.2926 17.3569 36.9495 17.0502C36.6349 16.7178 36.381 16.3328 36.1995 15.9127C36.0334 15.4907 35.9486 15.0412 35.9495 14.5877C35.9441 14.1257 36.0291 13.6672 36.1995 13.2377C36.3779 12.8159 36.6321 12.4304 36.9495 12.1002C37.6278 11.4667 38.5213 11.1143 39.4495 11.1143C40.3776 11.1143 41.2712 11.4667 41.9495 12.1002C42.2509 12.4354 42.492 12.8202 42.662 13.2377C42.8443 13.6649 42.9419 14.1233 42.9495 14.5877C42.9369 15.0434 42.8394 15.4928 42.662 15.9127C42.489 16.3286 42.2482 16.713 41.9495 17.0502C41.2724 17.6906 40.3812 18.0561 39.4495 18.0752H39.462Z" fill="black"/>
<path d="M69.6243 84.5998C68.6927 84.5998 67.7993 84.2297 67.1405 83.571C66.4818 82.9123 66.1118 82.0189 66.1118 81.0873C66.1118 80.1557 66.4818 79.2623 67.1405 78.6036C67.7993 77.9449 68.6927 77.5748 69.6243 77.5748H71.1243C72.0558 77.5748 72.9492 77.9449 73.608 78.6036C74.2667 79.2623 74.6368 80.1557 74.6368 81.0873C74.6368 82.0189 74.2667 82.9123 73.608 83.571C72.9492 84.2297 72.0558 84.5998 71.1243 84.5998H69.6243ZM79.7743 84.5998C78.8427 84.5998 77.9493 84.2297 77.2905 83.571C76.6318 82.9123 76.2618 82.0189 76.2618 81.0873C76.2618 80.1557 76.6318 79.2623 77.2905 78.6036C77.9493 77.9449 78.8427 77.5748 79.7743 77.5748H88.6368C89.0967 77.5798 89.553 77.4931 89.9791 77.3198C90.4052 77.1464 90.7925 76.8899 91.1183 76.5652C91.4441 76.2406 91.702 75.8542 91.8769 75.4288C92.0518 75.0033 92.1401 74.5473 92.1367 74.0873V11.0623C92.1427 10.597 92.0538 10.1353 91.8754 9.70547C91.6971 9.27564 91.433 8.88667 91.0992 8.5623C90.7721 8.23318 90.3823 7.97292 89.9529 7.79687C89.5236 7.62083 89.0633 7.53257 88.5992 7.5373H11.3618C10.4262 7.53744 9.5282 7.90561 8.86179 8.5623C8.52983 8.88799 8.26688 9.2772 8.08863 9.70672C7.91038 10.1362 7.82048 10.5973 7.82429 11.0623V74.0873C7.82909 75.0244 8.20166 75.9222 8.86179 76.5873C8.9146 76.6162 8.96478 76.6497 9.01179 76.6873C9.64965 77.2779 10.4928 77.5963 11.3618 77.5748H60.5118C61.4433 77.5748 62.3368 77.9449 62.9955 78.6036C63.6542 79.2623 64.0243 80.1557 64.0243 81.0873C64.0243 82.0189 63.6542 82.9123 62.9955 83.571C62.3368 84.2297 61.4433 84.5998 60.5118 84.5998H11.3618C8.68394 84.5949 6.10715 83.5767 4.14929 81.7498L3.89929 81.5373C2.91924 80.5504 2.14323 79.3801 1.61561 78.0932C1.08799 76.8064 0.8191 75.4281 0.824293 74.0373V11.0623C0.830913 8.27192 1.94403 5.59808 3.91948 3.62732C5.89492 1.65656 8.5714 0.549797 11.3618 0.549805H88.6368C90.0178 0.550244 91.3851 0.824438 92.6596 1.35653C93.934 1.88863 95.0904 2.66807 96.0617 3.6498C98.0278 5.61603 99.1336 8.28179 99.1367 11.0623V74.0873C99.1417 75.4682 98.8736 76.8364 98.3478 78.1132C97.822 79.3901 97.049 80.5504 96.0732 81.5274C95.0973 82.5044 93.938 83.2788 92.6617 83.8061C91.3855 84.3333 90.0176 84.6031 88.6368 84.5998H79.7743Z" fill="black"/>
<path d="M4.325 56.6002C3.39343 56.6002 2.50001 56.2301 1.84129 55.5714C1.18257 54.9127 0.8125 54.0193 0.8125 53.0877C0.8125 52.1561 1.18257 51.2627 1.84129 50.604C2.50001 49.9453 3.39343 49.5752 4.325 49.5752H60.5125C60.9738 49.5752 61.4305 49.666 61.8567 49.8426C62.2828 50.0191 62.6701 50.2778 62.9962 50.604C63.3224 50.9301 63.5811 51.3174 63.7576 51.7435C63.9342 52.1697 64.025 52.6264 64.025 53.0877C64.025 53.549 63.9342 54.0057 63.7576 54.4319C63.5811 54.858 63.3224 55.2452 62.9962 55.5714C62.6701 55.8976 62.2828 56.1563 61.8567 56.3328C61.4305 56.5093 60.9738 56.6002 60.5125 56.6002H4.325Z" fill="black"/>
<path d="M57 34.3248C57 33.3899 57.3714 32.4933 58.0325 31.8323C58.6935 31.1712 59.5901 30.7998 60.525 30.7998C61.4599 30.7998 62.3565 31.1712 63.0175 31.8323C63.6786 32.4933 64.05 33.3899 64.05 34.3248V81.1123C64.05 82.0472 63.6786 82.9438 63.0175 83.6049C62.3565 84.2659 61.4599 84.6373 60.525 84.6373C59.5901 84.6373 58.6935 84.2659 58.0325 83.6049C57.3714 82.9438 57 82.0472 57 81.1123V34.3248Z" fill="black"/>
</g>
<defs>
<clipPath id="clip0_72_33">
<rect width="100" height="85" fill="white"/>
</clipPath>
</defs>
</svg>
