<svg width="100" height="100" viewBox="0 0 100 100" fill="none" xmlns="http://www.w3.org/2000/svg">
<g clip-path="url(#clip0_76_52)">
<path d="M1.60211 88.0637L1.60337 88.0612L43.0988 5.05324C44.4168 2.4173 47.0667 0.78418 50.0025 0.78418C52.9383 0.78418 55.5882 2.4173 56.9062 5.05324L56.9062 5.05328L98.401 88.0247C99.6037 90.4467 99.4854 93.2456 98.0689 95.5288C96.6509 97.8143 94.2015 99.1809 91.4981 99.1809H91.017L91.0157 99.2161H8.50693C5.80353 99.2161 3.35412 97.8496 1.93613 95.564C0.518088 93.2783 0.385649 90.4633 1.60211 88.0637ZM50.4952 3.37445L50.4947 3.33543H50.0013C48.0034 3.33543 46.266 4.39895 45.3812 6.18672C45.381 6.18726 45.3807 6.1878 45.3804 6.18834L3.88597 89.1761C3.08138 90.7853 3.1586 92.6745 4.12152 94.209C5.06509 95.741 6.7173 96.6646 8.52352 96.6646H91.4963C93.3061 96.6646 94.9378 95.738 95.8969 94.2112L95.8994 94.2072C96.8406 92.6777 96.9406 90.7896 96.1338 89.1761L96.1338 89.176L54.6213 6.2033L54.6203 6.20146C53.7943 4.56729 52.2831 3.53503 50.4952 3.37445Z" fill="black" stroke="black"/>
<path d="M52.8058 65.9797H47.195C45.1887 65.9797 43.5018 64.3995 43.3598 62.3931L41.4599 33.292C41.3356 31.4099 42.0103 29.5455 43.2888 28.1783C44.5672 26.8112 46.396 26.0122 48.2781 26.0122H51.7049C53.587 26.0122 55.3981 26.7935 56.6942 28.1783C57.9726 29.5455 58.6474 31.4099 58.5231 33.292L56.6232 62.3931C56.4989 64.3995 54.8121 65.9797 52.788 65.9797H52.8058ZM48.2958 29.5808C47.3725 29.5808 46.538 29.9537 45.8988 30.6107C45.2596 31.2676 44.9577 32.1554 45.011 33.0609L46.9109 62.162C46.9109 62.3041 47.0529 62.4284 47.195 62.4284H52.8058C52.9478 62.4284 53.0721 62.3041 53.0898 62.162L54.9897 33.0779C55.043 32.1724 54.7412 31.2847 54.102 30.6277C53.4627 29.9708 52.6282 29.5979 51.7049 29.5979H48.2781L48.2958 29.5808Z" fill="black"/>
<path d="M50.0007 84.624C46.0767 84.624 42.8984 81.4457 42.8984 77.5217C42.8984 73.5977 46.0767 70.4194 50.0007 70.4194C53.9247 70.4194 57.103 73.5977 57.103 77.5217C57.103 81.4457 53.9247 84.624 50.0007 84.624ZM50.0007 73.9706C48.0475 73.9706 46.4496 75.5685 46.4496 77.5217C46.4496 79.4749 48.0475 81.0728 50.0007 81.0728C51.9539 81.0728 53.5518 79.4749 53.5518 77.5217C53.5518 75.5685 51.9539 73.9706 50.0007 73.9706Z" fill="black"/>
</g>
<defs>
<clipPath id="clip0_76_52">
<rect width="100" height="100" fill="white"/>
</clipPath>
</defs>
</svg>
